<svg xmlns="http://www.w3.org/2000/svg" width="67.19mm" height="22.45mm" viewBox="0 0 190.47 63.65">
  <defs>
    <style>
      .a {
        fill: #036;
      }
    </style>
  </defs>
  <g>
    <g>
      <path class="a" d="M63.33,33.46c.23-8.09.27-19.22-4.32-25-3-3.84-7.69-5.89-12.85-7a23.24,23.24,0,0,1,2.32,3.49A22.75,22.75,0,0,1,51,19.38a20.24,20.24,0,0,1-2.57,7c-.32.54-.66,1.06-1,1.57v.1c0,.31.05.62.06.92a17.94,17.94,0,0,1-.33,3.58,22,22,0,0,1-1,3.37,24.08,24.08,0,0,1-5,8.23,1.81,1.81,0,0,1,.18.21,4.62,4.62,0,0,1,.9,3.59,6.91,6.91,0,0,1-.48,1.74,9.51,9.51,0,0,1-.79,1.6,12.17,12.17,0,0,1-2.15,2.54,1.93,1.93,0,0,1,.34.63,2.36,2.36,0,0,1-.08,1.55,4.73,4.73,0,0,1-.73,1.32L37.9,58a3.64,3.64,0,0,1-.48.56l-.53.53a3.84,3.84,0,0,1-.56.5l-.56.46-.3.23-.31.19a15.4,15.4,0,0,1-5.51,2.14,20.73,20.73,0,0,1-2.94.37,19.53,19.53,0,0,1-3,0,18.28,18.28,0,0,0,3,0,22.3,22.3,0,0,0,2.92-.41A15.73,15.73,0,0,0,35,60.23l.3-.19.28-.23.57-.46a5,5,0,0,0,.52-.51l.5-.52a4.15,4.15,0,0,0,.46-.56l.42-.56a4.46,4.46,0,0,0,.64-1.27,1.93,1.93,0,0,0,.05-1.32,1.42,1.42,0,0,0-.27-.48,10.9,10.9,0,0,1-2.76,1.74h0A25.29,25.29,0,0,1,32.92,57a20.81,20.81,0,0,1-2.91.78,9.34,9.34,0,0,1-3.07.18,3.5,3.5,0,0,1-1.55-.56,2.3,2.3,0,0,1-1-1.38,1.38,1.38,0,0,1,.1-.94,2.15,2.15,0,0,1,.57-.63,5,5,0,0,1,1.33-.84,13.27,13.27,0,0,1,2.89-.9,19.31,19.31,0,0,1,6-.31,7.19,7.19,0,0,1,2.76.83,10.76,10.76,0,0,0,2-2.43,7.67,7.67,0,0,0,.69-1.41,5.84,5.84,0,0,0,.37-1.48,3.52,3.52,0,0,0-.7-2.71l-.06,0-.9.92-.61.59c-.24.21-.48.43-.72.61a18.89,18.89,0,0,1-3,1.91,28.38,28.38,0,0,1-6.56,2.35A18.82,18.82,0,0,1,25,52a12.59,12.59,0,0,1-3.62-.26,4.07,4.07,0,0,1-1.9-1,2.2,2.2,0,0,1-.65-1.17,2.49,2.49,0,0,1,.1-1.24,4.68,4.68,0,0,1,1.12-1.68,9.5,9.5,0,0,1,1.4-1.21,20.5,20.5,0,0,1,6.39-2.8,23,23,0,0,1,6.91-.82,13.84,13.84,0,0,1,3.49.57,6.83,6.83,0,0,1,1.16.46,23,23,0,0,0,4.47-7.74,20.16,20.16,0,0,0,.81-3c.09-.42.16-.85.21-1.27l-.63.59-.69.56-1.39,1.12c-.46.38-1,.72-1.46,1.09-1,.67-2,1.29-3,1.88a54.62,54.62,0,0,1-6.27,3.12,47.6,47.6,0,0,1-6.66,2.29c-1.12.33-2.3.53-3.47.77a23.24,23.24,0,0,1-3.55.41,33.67,33.67,0,0,1-3.62,0,34,34,0,0,1-3.63-.46,15.55,15.55,0,0,1-3.65-1.17l-.46-.21L6,40.64A9.25,9.25,0,0,1,5.09,40a6.52,6.52,0,0,1-1.53-1.74A6,6,0,0,1,2.77,36a7.33,7.33,0,0,1,.08-2.24,11.21,11.21,0,0,1,1.47-3.66,16.46,16.46,0,0,1,1.06-1.56l.32-.39L6,27.87c.19-.24.4-.46.6-.68a29.68,29.68,0,0,1,2.57-2.45,36.23,36.23,0,0,1,5.76-4.06,35.71,35.71,0,0,1,6.52-2.78,32.09,32.09,0,0,1,14-.88,18.87,18.87,0,0,1,6.82,2.49,7.76,7.76,0,0,1,.79.53l.69.6A10.12,10.12,0,0,1,45.09,22c.07.08.13.17.19.25a16.12,16.12,0,0,0,1-3.63A17.94,17.94,0,0,0,44,7.31a19.56,19.56,0,0,0-3.67-4.63A20.93,20.93,0,0,0,37.14.26c-1.52-.09-3-.15-4.49-.19C23.57-.19,12.35,0,6.42,6.14.89,11.79.32,23,.07,31.66-.18,40,0,52.12,4.91,58c5.61,6.73,12,5.29,21.28,5.55,10.35.3,28.81-.41,34.79-8.15C65.1,50.11,63.11,40.77,63.33,33.46Z"/>
      <path class="a" d="M40.82,21.78a16,16,0,0,0-5.81-2,29.13,29.13,0,0,0-12.65,1,32.6,32.6,0,0,0-5.81,2.62,33.33,33.33,0,0,0-5.14,3.78,25,25,0,0,0-2.25,2.24l-.5.56-.27.33-.21.27a11.2,11.2,0,0,0-.79,1.23,7.83,7.83,0,0,0-1,2.52,3.51,3.51,0,0,0,0,1.12,2.2,2.2,0,0,0,.33.86,3.88,3.88,0,0,0,1.78,1.36,11.93,11.93,0,0,0,2.77.81c1,.19,2.05.23,3.07.32a27.21,27.21,0,0,0,3.13-.1c1.05-.06,2.1-.27,3.14-.43a20,20,0,0,0,3.1-.76,42.42,42.42,0,0,0,6-2.22,50.29,50.29,0,0,0,5.73-3c.91-.56,1.81-1.12,2.68-1.76l1.25-.94c.42-.32.82-.67,1.21-1l.56-.5.53-.52c.36-.34.67-.73,1-1.09.41-.51.8-1,1.16-1.57A8.52,8.52,0,0,0,40.82,21.78Z"/>
      <path class="a" d="M29.42,53.25a12.69,12.69,0,0,0-2.73.91,4.63,4.63,0,0,0-1.12.74,1,1,0,0,0-.41,1,1.63,1.63,0,0,0,.7.93,3,3,0,0,0,1.23.4A9.17,9.17,0,0,0,29.9,57,24,24,0,0,0,35.33,55h0a9.43,9.43,0,0,0,2.34-1.5,6.83,6.83,0,0,0-2.47-.67A19.05,19.05,0,0,0,29.42,53.25Z"/>
      <path class="a" d="M34.67,43.21a21.93,21.93,0,0,0-6.44.9A19.09,19.09,0,0,0,22.4,46.8a7.69,7.69,0,0,0-1.12,1,3.29,3.29,0,0,0-.71,1.12.91.91,0,0,0,0,.4.52.52,0,0,0,.17.26,2.44,2.44,0,0,0,1.12.48,11.44,11.44,0,0,0,3.09.15,18.58,18.58,0,0,0,3.14-.54,26.22,26.22,0,0,0,6-2.33,16.89,16.89,0,0,0,2.64-1.73c.2-.16.36-.34.56-.5l.56-.56c.21-.21.41-.43.61-.65-.21-.08-.43-.16-.65-.22A12.91,12.91,0,0,0,34.67,43.21Z"/>
    </g>
    <g>
      <path class="a" d="M91.58,23.94V36a2.75,2.75,0,0,0,.56,2,2.08,2.08,0,0,0,1.61.56,3.69,3.69,0,0,0,2-.61,4.68,4.68,0,0,0,1.57-1.56V23.94h4.49V41.33H97.87l-.22-2.13a6.09,6.09,0,0,1-2.43,2,7.38,7.38,0,0,1-3.07.67,4.83,4.83,0,0,1-3.84-1.44,5.76,5.76,0,0,1-1.25-3.89V23.94Z"/>
      <path class="a" d="M120,40.37a10.65,10.65,0,0,1-5.49,1.48,6.53,6.53,0,0,1-4.91-1.69A6.07,6.07,0,0,1,108,35.72V27.08h-3.83V23.94H108V20.11l4.49-.53v4.36h5.82l-.45,3.14h-5.37v8.64a2.63,2.63,0,0,0,.65,2,3,3,0,0,0,2.13.62,6.88,6.88,0,0,0,1.75-.22,7.41,7.41,0,0,0,1.44-.56Z"/>
      <path class="a" d="M129.63,23.43a8.47,8.47,0,0,1,4.49,1.12,7.15,7.15,0,0,1,2.81,3.2,11.31,11.31,0,0,1,1,4.83,11.41,11.41,0,0,1-1,4.92,7.18,7.18,0,0,1-2.81,3.21,8.39,8.39,0,0,1-4.49,1.13,8.62,8.62,0,0,1-4.49-1.13,7.07,7.07,0,0,1-2.8-3.17,11.32,11.32,0,0,1-1-4.93,11.24,11.24,0,0,1,1-4.82,7.59,7.59,0,0,1,2.81-3.23A8.38,8.38,0,0,1,129.63,23.43Zm0,3.33a3,3,0,0,0-2.72,1.42,8.49,8.49,0,0,0-.9,4.45,8.77,8.77,0,0,0,.89,4.49,3.33,3.33,0,0,0,4.63.81,3.46,3.46,0,0,0,.81-.81,8.72,8.72,0,0,0,.89-4.49,8.38,8.38,0,0,0-.89-4.43A3,3,0,0,0,129.63,26.76Z"/>
      <path class="a" d="M149.06,23.43a5.81,5.81,0,0,1,3.73,1.12,6.36,6.36,0,0,1,2.06,3.19,16.25,16.25,0,0,1,.64,4.85,13.56,13.56,0,0,1-.77,4.77,7.42,7.42,0,0,1-2.3,3.29,5.83,5.83,0,0,1-3.71,1.2A5.52,5.52,0,0,1,144.36,40V48l-4.48.48V23.94h4l.23,2.08a6.78,6.78,0,0,1,2.35-2A6.17,6.17,0,0,1,149.06,23.43Zm-1.34,3.32a3,3,0,0,0-1.92.65A6.39,6.39,0,0,0,144.34,29v7.74a4.3,4.3,0,0,0,1.35,1.3,3.31,3.31,0,0,0,1.68.45,2.82,2.82,0,0,0,2.54-1.38,8.57,8.57,0,0,0,.89-4.49,14.17,14.17,0,0,0-.35-3.49,3.36,3.36,0,0,0-1-1.84,2.54,2.54,0,0,0-1.68-.55Z"/>
      <path class="a" d="M167.67,23.94V38.22h4.64v3.12H158V38.22h5.15V27.06h-5V23.94Zm-2.9-8.83a2.78,2.78,0,0,1,2,.76,2.53,2.53,0,0,1,.77,1.85,2.59,2.59,0,0,1-.77,1.92,3,3,0,0,1-4,0,2.53,2.53,0,0,1-.77-1.89,2.48,2.48,0,0,1,.77-1.85A2.8,2.8,0,0,1,164.77,15.11Z"/>
      <path class="a" d="M189.23,36.7a2.72,2.72,0,0,0,.29,1.46,1.77,1.77,0,0,0,.95.68l-1,3a6.61,6.61,0,0,1-2.45-.69,3.56,3.56,0,0,1-1.54-1.69A6.25,6.25,0,0,1,183,41.23a9,9,0,0,1-3.2.6,6,6,0,0,1-4.31-1.52,5.17,5.17,0,0,1-1.59-3.93,4.86,4.86,0,0,1,2.24-4.3,11.2,11.2,0,0,1,6.3-1.51h2.44v-.88a2.55,2.55,0,0,0-1-2.19,4.66,4.66,0,0,0-2.75-.69A12,12,0,0,0,179,27a19.87,19.87,0,0,0-2.63.67l-1.07-3a20.1,20.1,0,0,1,3.42-.93,18.23,18.23,0,0,1,3.13-.3c2.51,0,4.38.52,5.59,1.56a5.49,5.49,0,0,1,1.82,4.42Zm-8,1.93a4.35,4.35,0,0,0,2-.56,3.84,3.84,0,0,0,1.57-1.55V33.21h-1.68a6.18,6.18,0,0,0-3.5.76,2.5,2.5,0,0,0-1.08,2.18,2.41,2.41,0,0,0,.69,1.83A2.84,2.84,0,0,0,181.26,38.63Z"/>
    </g>
  </g>
</svg>
