<svg xmlns="http://www.w3.org/2000/svg" width="20mm" height="20mm" viewBox="0 0 56.69 56.69">
  <defs>
    <style>
      .a {
        fill: #036;
      }
    </style>
  </defs>
  <g>
    <path class="a" d="M56.12,29.79c.21-7.13.24-16.94-3.8-22.07C49.65,4.33,45.54,2.53,41,1.55a20.49,20.49,0,0,1,2,3.08,20,20,0,0,1,2.24,12.75A18.09,18.09,0,0,1,43,23.58,14.3,14.3,0,0,1,42.09,25v.1c0,.27,0,.54.06.8A16,16,0,0,1,41.86,29,20.56,20.56,0,0,1,41,32a21.13,21.13,0,0,1-4.42,7.25,1.54,1.54,0,0,1,.17.19,4.09,4.09,0,0,1,.78,3.17,6.3,6.3,0,0,1-.41,1.53,8.71,8.71,0,0,1-.7,1.4,11.06,11.06,0,0,1-1.9,2.25,1.48,1.48,0,0,1,.3.55,2.08,2.08,0,0,1-.07,1.37,4.24,4.24,0,0,1-.64,1.16l-.4.52a2.79,2.79,0,0,1-.42.49l-.46.47a3.5,3.5,0,0,1-.5.44l-.49.4-.27.21-.27.17a13.69,13.69,0,0,1-4.85,1.88,18.49,18.49,0,0,1-5.21.29,18.94,18.94,0,0,0,2.61,0,20.39,20.39,0,0,0,2.57-.37,13.56,13.56,0,0,0,4.76-2l.27-.17.25-.2.49-.41a3.27,3.27,0,0,0,.47-.44l.44-.46a3.81,3.81,0,0,0,.4-.5l.37-.49a4,4,0,0,0,.57-1.12,1.77,1.77,0,0,0,0-1.16,1.22,1.22,0,0,0-.24-.43,9.15,9.15,0,0,1-2.44,1.54h0a22.09,22.09,0,0,1-2.48,1,18.58,18.58,0,0,1-2.56.69,8.51,8.51,0,0,1-2.71.16,3.2,3.2,0,0,1-1.36-.5,2.08,2.08,0,0,1-.87-1.22,1.29,1.29,0,0,1,.09-.82,2.06,2.06,0,0,1,.53-.57,4.48,4.48,0,0,1,1.18-.73,11.9,11.9,0,0,1,2.54-.8,17.26,17.26,0,0,1,5.27-.27,6.3,6.3,0,0,1,2.43.74,9.81,9.81,0,0,0,1.75-2.15,7.09,7.09,0,0,0,.6-1.24,4.94,4.94,0,0,0,.33-1.31,3.13,3.13,0,0,0-.62-2.38s0,0,0-.05c-.26.27-.53.55-.8.81l-.54.52a6.42,6.42,0,0,1-.63.54,17.43,17.43,0,0,1-2.65,1.68,25.43,25.43,0,0,1-5.78,2.08,16.94,16.94,0,0,1-3.08.44,11,11,0,0,1-3.19-.23,3.59,3.59,0,0,1-1.69-.83,2,2,0,0,1-.56-1A2.16,2.16,0,0,1,17,43a4.38,4.38,0,0,1,1-1.48,8.83,8.83,0,0,1,1.23-1.06A18.22,18.22,0,0,1,24.86,38a20.14,20.14,0,0,1,6.08-.72,12.37,12.37,0,0,1,3.08.49,7.62,7.62,0,0,1,1,.41A20.79,20.79,0,0,0,37.9,33.9,20.22,20.22,0,0,0,39,31.31a17.78,17.78,0,0,0,.72-2.69,10.45,10.45,0,0,0,.18-1.12l-.55.52-.61.49c-.41.35-.82.66-1.23,1s-.86.64-1.29,1c-.86.58-1.74,1.13-2.63,1.65A47.5,47.5,0,0,1,28,34.88a43.09,43.09,0,0,1-5.86,2c-1,.29-2,.47-3.06.68a20.41,20.41,0,0,1-3.13.36,28.33,28.33,0,0,1-3.19,0,31.08,31.08,0,0,1-3.2-.4,14.06,14.06,0,0,1-3.22-1L6,36.35l-.41-.24a6.78,6.78,0,0,1-.78-.54A5.81,5.81,0,0,1,3.45,34a5.11,5.11,0,0,1-.7-2,6.57,6.57,0,0,1,.07-2,9.88,9.88,0,0,1,1.3-3.23,12.78,12.78,0,0,1,.94-1.37l.27-.34.24-.28c.17-.21.36-.41.53-.6A28.82,28.82,0,0,1,8.36,22.1a33.23,33.23,0,0,1,5.08-3.58,31.32,31.32,0,0,1,5.75-2.44,28.17,28.17,0,0,1,12.38-.78,16.56,16.56,0,0,1,6,2.2,6.05,6.05,0,0,1,.7.46l.61.53a8.94,8.94,0,0,1,1.16,1.22,1.84,1.84,0,0,1,.17.22,14.71,14.71,0,0,0,.87-3.2,15.83,15.83,0,0,0-2-10,17.49,17.49,0,0,0-3.24-4.08A18.38,18.38,0,0,0,33,.53c-1.34-.08-2.67-.14-4-.17C21.08.13,11.19.33,6,5.71,1.1,10.69.59,20.58.37,28.2c-.22,7.38,0,18,4.27,23.25,4.94,5.93,10.53,4.66,18.75,4.89,9.12.27,25.4-.36,30.66-7.18C57.68,44.46,55.93,36.23,56.12,29.79Z"/>
    <path class="a" d="M26.24,47.22a11.59,11.59,0,0,0-2.41.81,4.08,4.08,0,0,0-1,.65.9.9,0,0,0-.37.85,1.52,1.52,0,0,0,.62.83,2.74,2.74,0,0,0,1.09.35,7.9,7.9,0,0,0,2.47-.21,20.89,20.89,0,0,0,4.79-1.71h0a8.26,8.26,0,0,0,2.06-1.33,6.08,6.08,0,0,0-2.18-.58A16.75,16.75,0,0,0,26.24,47.22Z"/>
    <path class="a" d="M36.28,19.49a14.06,14.06,0,0,0-5.12-1.73A25.47,25.47,0,0,0,20,18.68,28,28,0,0,0,14.9,21a30.26,30.26,0,0,0-4.54,3.33,23.12,23.12,0,0,0-2,2l-.44.49-.23.3-.19.23a12.43,12.43,0,0,0-.7,1.08A6.89,6.89,0,0,0,6,30.62a3.29,3.29,0,0,0,0,1,2.09,2.09,0,0,0,.29.75,3.46,3.46,0,0,0,1.57,1.2,10.37,10.37,0,0,0,2.44.72c.89.16,1.8.2,2.71.28a23.15,23.15,0,0,0,2.76-.1c.92-.05,1.84-.23,2.76-.37a17.66,17.66,0,0,0,2.74-.67,37.47,37.47,0,0,0,5.3-2,45.56,45.56,0,0,0,5-2.64c.81-.5,1.6-1,2.36-1.55L35,26.44c.37-.28.72-.6,1.06-.9l.49-.44.47-.46c.32-.3.59-.65.89-1a17,17,0,0,0,1-1.39A7.43,7.43,0,0,0,36.28,19.49Z"/>
    <path class="a" d="M30.87,38.38a19.53,19.53,0,0,0-5.68.79,17.16,17.16,0,0,0-5.14,2.37,7,7,0,0,0-1,.89,3,3,0,0,0-.62,1,.7.7,0,0,0,0,.35.55.55,0,0,0,.15.24,2.36,2.36,0,0,0,1,.42,10,10,0,0,0,2.73.12A15.17,15.17,0,0,0,25,44.08a23.06,23.06,0,0,0,5.32-2,15.59,15.59,0,0,0,2.33-1.53c.18-.14.32-.29.49-.44l.5-.49.54-.57a5.66,5.66,0,0,0-.58-.2A11.75,11.75,0,0,0,30.87,38.38Z"/>
  </g>
</svg>
