<svg xmlns="http://www.w3.org/2000/svg" width="119.73mm" height="40.01mm" viewBox="0 0 339.4 113.4">
  <defs>
    <style>
      .a {
        fill: #f6f6f6;
      }
    </style>
  </defs>
  <g>
    <g>
      <path class="a" d="M127,59c.32-10.83.32-25.7-5.73-33.45-4-5.09-10.3-7.86-17.2-9.34a31.89,31.89,0,0,1,3.08,4.67,30,30,0,0,1,3.39,19.33,28.08,28.08,0,0,1-3.39,9.45c-.43.74-.85,1.38-1.38,2.12v.11c0,.42.1.85.1,1.27a24.14,24.14,0,0,1-.42,4.78,31,31,0,0,1-1.28,4.46,32.55,32.55,0,0,1-6.69,11c.11.11.22.22.22.32a6,6,0,0,1,1.16,4.78,8.25,8.25,0,0,1-.63,2.34A14,14,0,0,1,97.17,83a18.37,18.37,0,0,1-2.87,3.4,2.06,2.06,0,0,1,.42.85,3.61,3.61,0,0,1-.1,2.12,6,6,0,0,1-1,1.81L93,91.9a4.41,4.41,0,0,1-.63.74l-.75.53a4,4,0,0,1-.74.64l-.74.64-.43.32-.42.21A22.91,22.91,0,0,1,82,97.85c-1.27.21-2.65.42-3.93.53a16.7,16.7,0,0,1-3.93-.11,23.44,23.44,0,0,0,3.93,0c1.28-.11,2.66-.32,3.93-.53a22.55,22.55,0,0,0,7.22-3l.43-.22.42-.31.74-.64c.22-.21.53-.43.75-.64l.63-.74c.22-.21.43-.53.64-.75l.53-.74a4.94,4.94,0,0,0,.85-1.7,3.49,3.49,0,0,0,.11-1.8L94,86.59a14.67,14.67,0,0,1-3.72,2.34h0a37.23,37.23,0,0,1-3.71,1.48,38.94,38.94,0,0,1-3.93,1.06,10.92,10.92,0,0,1-4.14.22,5.09,5.09,0,0,1-2.13-.75,2.73,2.73,0,0,1-1.27-1.8,2.66,2.66,0,0,1,.1-1.28A3.81,3.81,0,0,1,76,87a10.76,10.76,0,0,1,1.81-1.16,17.44,17.44,0,0,1,3.82-1.17,28.88,28.88,0,0,1,8-.43,11.35,11.35,0,0,1,3.71,1.07A13.62,13.62,0,0,0,96,82l1-1.91a10,10,0,0,0,.53-2,4.49,4.49,0,0,0-1-3.62l-.11-.1a13.52,13.52,0,0,0-1.17,1.27l-.85.75c-.31.31-.63.53-1,.85a32.9,32.9,0,0,1-4,2.54A41.31,41.31,0,0,1,80.6,83a22.46,22.46,0,0,1-4.67.64A19.18,19.18,0,0,1,71,83.3,5.81,5.81,0,0,1,68.49,82a2.87,2.87,0,0,1-.84-1.59,4.65,4.65,0,0,1,.1-1.7,6.34,6.34,0,0,1,1.49-2.23,7,7,0,0,1,1.91-1.59,28.26,28.26,0,0,1,8.6-3.72A30,30,0,0,1,89,70.13a17.39,17.39,0,0,1,4.67.74,10.57,10.57,0,0,1,1.59.64A30,30,0,0,0,99.61,65a25.32,25.32,0,0,0,1.59-3.92,27.69,27.69,0,0,0,1.06-4c.11-.53.21-1.17.32-1.7l-.85.74-1,.75c-.64.53-1.28,1-1.81,1.48s-1.27,1-1.91,1.49c-1.28.85-2.66,1.7-4,2.55a62.11,62.11,0,0,1-8.38,4.14,63,63,0,0,1-8.92,3.08c-1.49.42-3.08.74-4.68,1.06a24.22,24.22,0,0,1-4.78.53c-1.59.11-3.18.11-4.88.11a38.82,38.82,0,0,1-4.88-.64,20.42,20.42,0,0,1-4.89-1.59L51,68.75l-.63-.32a4.57,4.57,0,0,1-1.17-.85,8.29,8.29,0,0,1-2-2.33,7.79,7.79,0,0,1-1.06-3,9,9,0,0,1,.11-3,15.81,15.81,0,0,1,1.91-4.88c.42-.75,1-1.38,1.38-2.13l.42-.53.32-.42a6.66,6.66,0,0,1,.85-1c1.06-1.17,2.23-2.23,3.4-3.29a56.61,56.61,0,0,1,7.75-5.42A52.17,52.17,0,0,1,70.94,38a41.6,41.6,0,0,1,18.79-1.17,25.42,25.42,0,0,1,9.13,3.29,6.24,6.24,0,0,1,1.07.74l.95.85a14.07,14.07,0,0,1,1.81,1.81c.1.1.21.21.21.32a19.36,19.36,0,0,0,1.27-4.89,23.7,23.7,0,0,0-3-15.18,24.75,24.75,0,0,0-4.88-6.16A25.52,25.52,0,0,0,92,14.38c-2-.1-4-.21-6-.21-12.11-.32-27.18,0-35,8.18-7.44,7.54-8.18,22.61-8.5,34.19-.32,11.15-.1,27.4,6.48,35.25,7.54,9,16,7.12,28.46,7.44,13.8.42,38.54-.53,46.51-10.94C129.34,81.17,126.69,68.75,127,59Z"/>
      <path class="a" d="M96.85,43.27a22.58,22.58,0,0,0-7.75-2.66A39.55,39.55,0,0,0,72.21,42a51.51,51.51,0,0,0-7.75,3.51,45.82,45.82,0,0,0-6.9,5.09,39.9,39.9,0,0,0-3,3c-.21.21-.42.53-.63.74l-.32.42-.43.43a14.64,14.64,0,0,0-1.06,1.59,10,10,0,0,0-1.27,3.4,3.41,3.41,0,0,0,0,1.49,4.92,4.92,0,0,0,.42,1.16,4.86,4.86,0,0,0,2.34,1.81,14.82,14.82,0,0,0,3.72,1.06c1.38.21,2.76.32,4.14.43s2.76,0,4.14-.11,2.76-.32,4.25-.53A18.25,18.25,0,0,0,74,64.4a57.63,57.63,0,0,0,8.07-3,63.87,63.87,0,0,0,7.64-4,40.58,40.58,0,0,0,3.61-2.34c.53-.42,1.17-.85,1.7-1.27a19.57,19.57,0,0,0,1.59-1.38l.75-.64.74-.74a20.23,20.23,0,0,0,1.38-1.49c.53-.64,1.06-1.38,1.59-2.12A14.2,14.2,0,0,0,96.85,43.27Z"/>
      <path class="a" d="M88.67,71.94a29.45,29.45,0,0,0-8.6,1.16,28,28,0,0,0-7.86,3.61,9.34,9.34,0,0,0-1.49,1.39,4.41,4.41,0,0,0-1,1.48.47.47,0,0,0,0,.53c0,.11.11.22.21.32a3.81,3.81,0,0,0,1.49.64,18,18,0,0,0,4.14.21,20.37,20.37,0,0,0,4.25-.74,44.46,44.46,0,0,0,8.07-3.08,20.34,20.34,0,0,0,3.5-2.34,4,4,0,0,0,.74-.64l.75-.74.85-.85c-.32-.1-.53-.21-.85-.32A28.31,28.31,0,0,0,88.67,71.94Z"/>
      <path class="a" d="M81.66,85.42a20.86,20.86,0,0,0-3.61,1.17,7.17,7.17,0,0,0-1.49,1A1.22,1.22,0,0,0,76,88.82a2.25,2.25,0,0,0,1,1.27,4.76,4.76,0,0,0,1.59.54,10.94,10.94,0,0,0,3.72-.32,35.36,35.36,0,0,0,7.33-2.55h0a10.41,10.41,0,0,0,3.08-2,7.29,7.29,0,0,0-3.3-.85A23.69,23.69,0,0,0,81.66,85.42Z"/>
    </g>
    <g>
      <path class="a" d="M164.81,46.24V62.38a3.86,3.86,0,0,0,.74,2.65,2.63,2.63,0,0,0,2.12.75,4.68,4.68,0,0,0,2.66-.85,6.74,6.74,0,0,0,2.12-2.13V46.24h6.05V69.49h-5.3l-.32-2.86a8.09,8.09,0,0,1-3.3,2.65,9,9,0,0,1-4.14.85q-3.49,0-5.09-1.91a7.66,7.66,0,0,1-1.7-5.2V46.24Z"/>
      <path class="a" d="M202.82,68.22a13.69,13.69,0,0,1-3.18,1.38,11.19,11.19,0,0,1-4.15.53c-3,0-5.09-.74-6.58-2.23a8.13,8.13,0,0,1-2.23-6V50.38h-5.1V46.13h5.1V41l6-.75v5.84h7.76l-.64,4.25h-7.22V62a3.47,3.47,0,0,0,.85,2.66,4,4,0,0,0,2.86.85,8.92,8.92,0,0,0,2.34-.32,13.65,13.65,0,0,0,1.91-.74Z"/>
      <path class="a" d="M215.67,45.5A11.12,11.12,0,0,1,221.72,47a9.51,9.51,0,0,1,3.72,4.25,15,15,0,0,1,1.27,6.48,15.72,15.72,0,0,1-1.27,6.58,9.78,9.78,0,0,1-3.72,4.35,10.82,10.82,0,0,1-6.05,1.49,11,11,0,0,1-6-1.49,8.51,8.51,0,0,1-3.72-4.24,14.36,14.36,0,0,1-1.27-6.59,16.7,16.7,0,0,1,1.27-6.47A10.55,10.55,0,0,1,209.62,47,11.34,11.34,0,0,1,215.67,45.5Zm0,4.46a3.82,3.82,0,0,0-3.61,1.91c-.85,1.27-1.17,3.29-1.17,5.94a12.76,12.76,0,0,0,1.17,6.06,4.42,4.42,0,0,0,6.16,1.06,5.32,5.32,0,0,0,1.06-1.06,12.49,12.49,0,0,0,1.17-6.06,11.93,11.93,0,0,0-1.17-5.94A3.82,3.82,0,0,0,215.67,50Z"/>
      <path class="a" d="M241.69,45.5a7.42,7.42,0,0,1,7.75,5.73,19.43,19.43,0,0,1,.85,6.48,18.76,18.76,0,0,1-1.06,6.37,9.91,9.91,0,0,1-3.08,4.35,7.6,7.6,0,0,1-5,1.59,7.3,7.3,0,0,1-5.84-2.54V78.31l-6.05.63V46h5.31l.32,2.76a9.73,9.73,0,0,1,3.19-2.66A14.18,14.18,0,0,1,241.69,45.5ZM239.88,50a4.29,4.29,0,0,0-2.55.85,11.86,11.86,0,0,0-1.91,2.12V63.34A4.6,4.6,0,0,0,237.23,65a4.1,4.1,0,0,0,2.23.64,4,4,0,0,0,3.39-1.8c.75-1.28,1.17-3.19,1.17-6.06a22.42,22.42,0,0,0-.42-4.67,4.44,4.44,0,0,0-1.38-2.44,3.85,3.85,0,0,0-2.34-.74Z"/>
      <path class="a" d="M266.64,46.24V65.35h6.26v4.14H253.79V65.35h6.9v-15H253.9V46.24Zm-3.93-11.89a3.51,3.51,0,0,1,2.66,1.06,3.69,3.69,0,0,1,1.06,2.44,3.3,3.3,0,0,1-1.06,2.55,4.07,4.07,0,0,1-5.42,0,3.69,3.69,0,0,1-1.06-2.55A3.08,3.08,0,0,1,260,35.41,4.46,4.46,0,0,1,262.71,34.35Z"/>
      <path class="a" d="M295.42,63.23a3.85,3.85,0,0,0,.42,1.91,2.9,2.9,0,0,0,1.28,1L295.84,70a8.89,8.89,0,0,1-3.29-1,4.72,4.72,0,0,1-2.12-2.23,9.66,9.66,0,0,1-3.4,2.44,12.14,12.14,0,0,1-4.25.85,8.08,8.08,0,0,1-5.73-2,7,7,0,0,1-2.13-5.2,6.51,6.51,0,0,1,3-5.73c2-1.38,4.77-2,8.38-2h3.3V53.88a3.55,3.55,0,0,0-1.28-3,7.12,7.12,0,0,0-3.71-.95,13.28,13.28,0,0,0-2.87.31c-1.17.22-2.34.54-3.51.85l-1.48-4a32.28,32.28,0,0,1,4.56-1.28,27.69,27.69,0,0,1,4.25-.42c3.4,0,5.84.74,7.43,2.12a7.46,7.46,0,0,1,2.45,6v9.77ZM284.8,65.88a5.9,5.9,0,0,0,4.78-2.76V58.66h-2.23c-2.13,0-3.72.32-4.68,1.06a3.55,3.55,0,0,0-1.48,2.87,3,3,0,0,0,.95,2.44A4.6,4.6,0,0,0,284.8,65.88Z"/>
    </g>
  </g>
</svg>
